<?xml version="1.0" encoding="UTF-8"?>
<svg width="24px" height="24px" viewBox="0 0 24 24" version="1.1" xmlns="http://www.w3.org/2000/svg" xmlns:xlink="http://www.w3.org/1999/xlink">
    <title>Home Page Banner</title>
    <g id="Visuals" stroke="none" stroke-width="1" fill="none" fill-rule="evenodd">
        <g id="Home-Page-Banner" transform="translate(-186.000000, -313.000000)" fill-rule="nonzero">
            <g id="Group-5" transform="translate(186.000000, 313.000000)">
                <g id="Group-4" transform="translate(0.000000, 3.000000)">
                    <rect id="Rectangle" fill="#E08300" x="0" y="0" width="24" height="18" rx="2"></rect>
                    <path d="M2,3 L22,3 C22.5522847,3 23,3.44771525 23,4 L23,16 C23,16.5522847 22.5522847,17 22,17 L2,17 C1.44771525,17 1,16.5522847 1,16 L1,4 C1,3.44771525 1.44771525,3 2,3 Z" id="Rectangle" fill="#FFFFFF"></path>
                    <g id="Group-3" transform="translate(4.500000, 6.500000)" fill="#FFA526">
                        <path d="M3.8548125,4.51420107 L1.95014062,3.21384169 L3.8548125,1.91348232 C4.17553125,1.69452919 4.25803125,1.25704482 4.03907812,0.936326068 C3.82017187,0.615654193 3.38264062,0.533154193 3.06192187,0.752060443 L0.30665625,2.63310732 C0.11475,2.76412294 -1.66000547e-12,2.98148232 -1.66000547e-12,3.21379482 C-1.66000547e-12,3.44610732 0.11475,3.66356044 0.30665625,3.79457607 L3.06192187,5.67562294 C3.1831875,5.75845107 3.3211875,5.79810732 3.45773437,5.79810732 C3.68226562,5.79810732 3.90295312,5.69076357 4.03907812,5.49135732 C4.25803125,5.17063857 4.17553125,4.73315419 3.8548125,4.51420107 Z" id="Path"></path>
                        <path d="M14.3146875,2.63320107 L11.5594219,0.752154193 C11.23875,0.533247943 10.8012656,0.615747943 10.5822656,0.936419818 C10.3633125,1.25713857 10.4458125,1.69462294 10.7665312,1.91357607 L12.6712031,3.21393544 L10.7665312,4.51420107 C10.4458125,4.73315419 10.3633125,5.17063857 10.5822656,5.49135732 C10.7184375,5.69081044 10.9390312,5.79810732 11.1636094,5.79810732 C11.3001562,5.79810732 11.4381562,5.75840419 11.5594219,5.67562294 L14.3146875,3.79457607 C14.5065937,3.66356044 14.6213437,3.44620107 14.6213437,3.21388857 C14.6213437,2.98157607 14.5065469,2.76426357 14.3146875,2.63320107 Z" id="Path"></path>
                        <path d="M9.06651562,0.090326068 C8.72807812,-0.099939557 8.29935937,0.020154193 8.10904687,0.358732318 L5.28632812,5.38012294 C5.09610937,5.71856044 5.21625,6.14723232 5.55478125,6.33754482 C5.66371875,6.39881044 5.78198437,6.42787294 5.89865625,6.42787294 C6.14446875,6.42787294 6.38315625,6.29873232 6.51220312,6.06918544 L9.33492187,1.04779482 C9.52523437,0.709310443 9.40504687,0.280638568 9.06651562,0.090326068 Z" id="Path"></path>
                    </g>
                </g>
            </g>
        </g>
    </g>
</svg>