<?xml version="1.0" encoding="UTF-8"?>
<svg width="24px" height="24px" viewBox="0 0 24 24" version="1.1" xmlns="http://www.w3.org/2000/svg" xmlns:xlink="http://www.w3.org/1999/xlink">
    <title>Crash course</title>
    <g id="Visuals" stroke="none" stroke-width="1" fill="none" fill-rule="evenodd">
        <g id="Home-Page-Banner" transform="translate(-644.000000, -564.000000)" fill-rule="nonzero">
            <g id="Group-16" transform="translate(644.000000, 564.000000)">
                <g id="Group-15" transform="translate(1.500000, 0.000000)">
                    <path d="M1.92,0 L19.28,0 C20.3403867,-1.9478988e-16 21.2,0.85961328 21.2,1.92 L21.2,22.08 C21.2,23.1403867 20.3403867,24 19.28,24 L1.92,24 C0.85961328,24 3.51904525e-16,23.1403867 0,22.08 L0,1.92 C9.21846847e-17,0.85961328 0.85961328,1.9478988e-16 1.92,0 Z" id="Rectangle" fill="#E08300"></path>
                    <path d="M2.4,0.96 L18.8,0.96 C19.59529,0.96 20.24,1.60470996 20.24,2.4 L20.24,21.6 C20.24,22.39529 19.59529,23.04 18.8,23.04 L2.4,23.04 C1.60470996,23.04 0.96,22.39529 0.96,21.6 L0.96,2.4 C0.96,1.60470996 1.60470996,0.96 2.4,0.96 Z" id="Rectangle" fill="#FFFFFF"></path>
                    <path d="M5.22740196,7.58690542 L6.18740196,7.58690542 C6.71759532,7.58690542 7.14740196,8.01671206 7.14740196,8.54690542 L7.14740196,11.4069054 C7.14740196,11.6830478 6.92354433,11.9069054 6.64740196,11.9069054 L4.76740196,11.9069054 C4.49125958,11.9069054 4.26740196,11.6830478 4.26740196,11.4069054 L4.26740196,8.54690542 C4.26740196,8.01671206 4.6972086,7.58690542 5.22740196,7.58690542 Z" id="Rectangle" fill="#FFA526"></path>
                    <path d="M10.027402,5.18690542 L10.987402,5.18690542 C11.5175953,5.18690542 11.947402,5.61671206 11.947402,6.14690542 L11.947402,11.4069054 C11.947402,11.6830478 11.7235443,11.9069054 11.447402,11.9069054 L9.56740196,11.9069054 C9.29125958,11.9069054 9.06740196,11.6830478 9.06740196,11.4069054 L9.06740196,6.14690542 C9.06740196,5.61671206 9.4972086,5.18690542 10.027402,5.18690542 Z" id="Rectangle" fill="#FFA526"></path>
                    <path d="M14.827402,2.78690542 L15.787402,2.78690542 C16.3175953,2.78690542 16.747402,3.21671206 16.747402,3.74690542 L16.747402,11.4069054 C16.747402,11.6830478 16.5235443,11.9069054 16.247402,11.9069054 L14.367402,11.9069054 C14.0912596,11.9069054 13.867402,11.6830478 13.867402,11.4069054 L13.867402,3.74690542 C13.867402,3.21671206 14.2972086,2.78690542 14.827402,2.78690542 Z" id="Rectangle" fill="#FFA526"></path>
                    <path d="M4.36,14.4 L15,14.4 C15.2650967,14.4 15.48,14.6149033 15.48,14.88 C15.48,15.1450967 15.2650967,15.36 15,15.36 L4.36,15.36 C4.09490332,15.36 3.88,15.1450967 3.88,14.88 C3.88,14.6149033 4.09490332,14.4 4.36,14.4 Z" id="Rectangle" fill="#E08300"></path>
                    <path d="M4.36,17.28 L16.92,17.28 C17.1850967,17.28 17.4,17.4949033 17.4,17.76 C17.4,18.0250967 17.1850967,18.24 16.92,18.24 L4.36,18.24 C4.09490332,18.24 3.88,18.0250967 3.88,17.76 C3.88,17.4949033 4.09490332,17.28 4.36,17.28 Z" id="Rectangle" fill="#E08300"></path>
                    <path d="M4.36,20.16 L13.08,20.16 C13.3450967,20.16 13.56,20.3749033 13.56,20.64 C13.56,20.9050967 13.3450967,21.12 13.08,21.12 L4.36,21.12 C4.09490332,21.12 3.88,20.9050967 3.88,20.64 C3.88,20.3749033 4.09490332,20.16 4.36,20.16 Z" id="Rectangle" fill="#E08300"></path>
                </g>
            </g>
        </g>
    </g>
</svg>