<?xml version="1.0" encoding="UTF-8"?>
<svg width="24px" height="24px" viewBox="0 0 24 24" version="1.1" xmlns="http://www.w3.org/2000/svg" xmlns:xlink="http://www.w3.org/1999/xlink">
    <title>reading</title>
    <g id="Visuals" stroke="none" stroke-width="1" fill="none" fill-rule="evenodd">
        <g id="Home-Page-Banner" transform="translate(-377.000000, -313.000000)" fill-rule="nonzero">
            <g id="Group" transform="translate(377.000000, 313.000000)">
                <path d="M22.5937031,12.8240625 L22.5937031,10.59375 C22.5937031,10.2054375 22.2788906,9.890625 21.8905781,9.890625 C20.4380156,9.890625 19.0837969,10.0132031 17.8043437,10.2635156 C17.0585156,9.54328125 16.1492812,9.02071875 15.1646719,8.73510937 C16.2382969,7.8315 16.9218281,6.47854687 16.9218281,4.96875 C16.9218281,2.22895312 14.713875,-4.87432317e-12 11.9999531,-4.87432317e-12 C9.28603125,-4.87432317e-12 7.07807812,2.22895312 7.07807812,4.96875 C7.07807812,6.47854687 7.76160937,7.8315 8.83528125,8.7350625 C7.85067187,9.02071875 6.9414375,9.54328125 6.19560937,10.2634687 C4.91615625,10.0132031 3.5619375,9.89057812 2.109375,9.89057812 C1.7210625,9.89057812 1.40625,10.2053906 1.40625,10.5937031 L1.40625,12.8240156 C0.587859375,13.1142656 -3.43369777e-12,13.8958125 -3.43369777e-12,14.8124531 L-3.43369777e-12,16.2187031 C-3.43369777e-12,17.1353437 0.587859375,17.9168906 1.40625,18.2071406 L1.40625,20.4374531 C1.40625,20.8257656 1.7210625,21.1405781 2.109375,21.1405781 C5.78573437,21.1405781 8.804625,22.0116562 11.61,23.881875 C11.8450781,24.0385312 12.1547344,24.0389062 12.3900469,23.881875 C15.1954219,22.0116562 18.2142656,21.1405781 21.8906719,21.1405781 C22.2789844,21.1405781 22.5937969,20.8257656 22.5937969,20.4374531 L22.5937969,18.2071406 C23.4121875,17.9168906 24.0000469,17.1353437 24.0000469,16.2187031 L24.0000469,14.8124531 C24.0000469,13.8958594 23.4120937,13.1143125 22.5937031,12.8240625 Z" id="Path" fill="#E08300"></path>
                <path d="M8.48432812,4.96875 C8.48432812,3.00435937 10.0614375,1.40625 11.9999531,1.40625 C13.9384687,1.40625 15.5155781,3.00435937 15.5155781,4.96875 C15.5155781,6.90726562 13.9384687,8.484375 11.9999531,8.484375 C10.0614375,8.484375 8.48432812,6.90726562 8.48432812,4.96875 Z" id="Path" fill="#FFA526"></path>
                <path d="M2.10932812,16.921875 C1.721625,16.921875 1.40620312,16.6064531 1.40620312,16.21875 L1.40620312,14.8125 C1.40620312,14.4247969 1.721625,14.109375 2.10932812,14.109375 C2.49703125,14.109375 2.81245312,14.4247969 2.81245312,14.8125 L2.81245312,16.21875 C2.81245312,16.6064531 2.49703125,16.921875 2.10932812,16.921875 Z" id="Path" fill="#E08300"></path>
                <path d="M11.2968281,22.0352344 C8.74434375,20.5755 6.00529687,19.8377344 2.81245312,19.7445 L2.81245312,18.2071875 C3.63084375,17.9169375 4.21870312,17.1353906 4.21870312,16.21875 L4.21870312,14.8125 C4.21870312,13.8958594 3.63084375,13.1143125 2.81245312,12.8240625 L2.81245312,11.3068125 C6.11625,11.4016406 8.77185937,12.179625 11.2968281,13.78725 L11.2968281,22.0352344 Z" id="Path" fill="#FFFFFF"></path>
                <path d="M11.9999531,12.5690156 C10.7021719,11.7501562 9.35132812,11.1266719 7.90926562,10.6885312 C8.70164062,10.1735625 9.63440625,9.890625 10.5937031,9.890625 L13.4062031,9.890625 C14.3655,9.890625 15.2982656,10.1735625 16.0906406,10.6885312 C14.6485781,11.1266719 13.2976875,11.7501562 11.9999531,12.5690156 Z" id="Path" fill="#E08300"></path>
                <path d="M21.1874531,19.7445 C17.9946562,19.8377344 15.2555156,20.5756875 12.7030781,22.0353281 L12.7030781,13.7878125 C15.2280937,12.1800469 17.8835156,11.4015937 21.1874531,11.3068125 L21.1874531,12.8240625 C20.3690625,13.1143125 19.7812031,13.8958594 19.7812031,14.8125 L19.7812031,16.21875 C19.7812031,17.1353906 20.3690625,17.9169375 21.1874531,18.2071875 L21.1874531,19.7445 Z" id="Path" fill="#FFFFFF"></path>
                <path d="M22.5937031,16.21875 C22.5937031,16.6064531 22.2782812,16.921875 21.8905781,16.921875 C21.502875,16.921875 21.1874531,16.6064531 21.1874531,16.21875 L21.1874531,14.8125 C21.1874531,14.4247969 21.502875,14.109375 21.8905781,14.109375 C22.2782812,14.109375 22.5937031,14.4247969 22.5937031,14.8125 L22.5937031,16.21875 Z" id="Path" fill="#E08300"></path>
            </g>
        </g>
    </g>
</svg>